War 2007 DVDRiP H264 AAC-Deemu

Cover:
===================================================================================  
http://img255.imageshack.us/img255/9458/tforgwarwarwarfree2007.jpg
===================================================================================

Storyline:
===================================================================================
After his partner Tom Wynne and family are killed apparently by the infamous and elusive assassin Rogue, FBI agent Jack Crawford becomes obsessed with revenge as his world unravels into a vortex of guilt and betrayal. Rogue eventually resurfaces to settle a score of his own, setting off a bloody crime war between Asian mob rivals Chang of the Triad\\\'s and Yakuza boss Shiro. When Jack and Rogue finally come face to face, the ultimate truth of their pasts will be revealed.
===================================================================================

Video Specs:
===================================================================================
Format                           : AVC
Format/Info                      : Advanced Video Codec
Format profile                   : High@L2.1
Format settings, CABAC           : Yes
Format settings, ReFrames        : 4 frames
Codec ID                         : avc1
Codec ID/Info                    : Advanced Video Coding
Duration                         : 1h 38mn
Bit rate mode                    : Variable
Bit rate                         : 428 Kbps
Maximum bit rate                 : 2 516 Kbps
Width                            : 656 pixels
Height                           : 272 pixels
Display aspect ratio             : 2.2:1
Original display aspect ratio    : 2.2:1
Frame rate mode                  : Constant
Frame rate                       : 25.000 fps
Color space                      : YUV
Chroma subsampling               : 4:2:0
Bit depth                        : 8 bits
Scan type                        : Progressive
Bits/(Pixel*Frame)               : 0.096
Stream size                      : 302 MiB (83%)
Title                            : Video
===================================================================================

Audio Specs:
===================================================================================
Format                           : AAC
Format/Info                      : Advanced Audio Codec
Format version                   : Version 4
Format profile                   : LC
Format settings, SBR             : Yes
Format settings, PS              : No
Codec ID                         : 40
Duration                         : 1h 38mn
Bit rate mode                    : Variable
Bit rate                         : 86.2 Kbps
Maximum bit rate                 : 109 Kbps
Channel(s)                       : 2 channels
Channel positions                : Front: L R
Sampling rate                    : 48.0 KHz
Stream size                      : 60.9 MiB (17%)
Language                         : English
===================================================================================

Screens:
===================================================================================  
http://img201.imageshack.us/img201/4363/vlcsnap2010112812h57m25.png  
http://img249.imageshack.us/img249/2540/vlcsnap2010112812h58m14.png  
http://img714.imageshack.us/img714/7218/vlcsnap2010112812h58m40.png  
http://img40.imageshack.us/img40/6168/vlcsnap2010112812h59m03.png  
http://img683.imageshack.us/img683/2109/vlcsnap2010112813h00m10.png  
http://img18.imageshack.us/img18/8981/vlcsnap2010112813h01m13.png  
http://img534.imageshack.us/img534/3406/vlcsnap2010112813h01m27.png  
http://img135.imageshack.us/img135/696/vlcsnap2010112813h02m02.png  
http://img135.imageshack.us/img135/9345/vlcsnap2010112813h02m41.png  
http://img257.imageshack.us/img257/3785/vlcsnap2010112813h05m03.png
===================================================================================
EnJoY!!